<?xml version="1.0" standalone="no"?>
<!DOCTYPE svg PUBLIC "-//W3C//DTD SVG 20010904//EN"
 "http://www.w3.org/TR/2001/REC-SVG-20010904/DTD/svg10.dtd">
<svg version="1.0" xmlns="http://www.w3.org/2000/svg"
 width="800.000000pt" height="800.000000pt" viewBox="0 0 800.000000 800.000000"
 preserveAspectRatio="xMidYMid meet">
<metadata>
Created by potrace 1.11, written by Peter Selinger 2001-2013
</metadata>
<g transform="translate(0.000000,800.000000) scale(0.100000,-0.100000)"
fill="#000000" stroke="none">
<path d="M0 4000 l0 -4000 4000 0 4000 0 0 1435 0 1435 -3472 3 -3473 2 3473
3 3472 2 0 2560 0 2560 -4000 0 -4000 0 0 -4000z m4160 3236 c357 -51 569
-145 760 -336 160 -160 247 -329 286 -553 24 -139 15 -390 -19 -518 -89 -336
-296 -582 -660 -783 l-68 -37 37 -67 c49 -88 215 -358 343 -557 295 -458 597
-839 783 -986 67 -53 163 -101 258 -129 41 -12 76 -23 78 -25 3 -2 -34 -253
-43 -293 -5 -21 -10 -22 -99 -22 -325 0 -600 51 -792 148 -285 143 -459 362
-994 1242 -95 157 -186 302 -202 322 -74 94 -179 128 -393 128 l-136 0 3 -607
c4 -681 4 -681 73 -742 54 -47 145 -67 398 -87 l87 -6 0 -132 0 -132 -43 -42
-43 -42 -829 0 -829 0 -43 42 -43 42 0 132 0 132 88 6 c317 25 404 52 443 141
38 86 40 179 37 1720 -3 1327 -5 1496 -19 1543 -35 114 -90 138 -384 165
l-130 12 -3 129 -3 130 43 43 43 44 945 -3 c844 -4 958 -6 1070 -22z"/>
<path d="M3465 6869 c-94 -13 -137 -35 -152 -79 -9 -26 -12 -242 -12 -832 l-1
-798 193 0 c358 0 522 43 689 182 119 100 210 246 251 406 19 76 22 112 21
287 -1 231 -14 298 -86 445 -75 151 -227 282 -394 341 -135 47 -362 69 -509
48z"/>
</g>
</svg>
